<?xml version="1.0" encoding="utf-8"?>
<!-- Generator: Adobe Illustrator 24.0.1, SVG Export Plug-In . SVG Version: 6.00 Build 0)  -->
<svg version="1.1" id="Camada_1" xmlns="http://www.w3.org/2000/svg" xmlns:xlink="http://www.w3.org/1999/xlink" x="0px" y="0px"
	 viewBox="0 0 136.7 42.8" style="enable-background:new 0 0 136.7 42.8;" xml:space="preserve">
<style type="text/css">
	.st0{fill:#FFFFFF;}
	.st1{fill:url(#SVGID_1_);}
	.st2{fill:url(#SVGID_2_);}
	.st3{fill:url(#SVGID_3_);}
	.st4{fill:url(#SVGID_4_);}
	.st5{enable-background:new    ;}
	.st6{fill:#1D6DB7;}
	.st7{fill:#21439C;}
</style>
<g id="BACKGROUND">
</g>
<g id="OBJECTS">
	<circle class="st0" cx="21.4" cy="21.5" r="21"/>
	<g>
		
			<linearGradient id="SVGID_1_" gradientUnits="userSpaceOnUse" x1="-0.5152" y1="651.8142" x2="43.3278" y2="651.8142" gradientTransform="matrix(1 0 0 1 0 -615.3747)">
			<stop  offset="0" style="stop-color:#21409A"/>
			<stop  offset="1" style="stop-color:#1C75BC"/>
		</linearGradient>
		<path class="st1" d="M36.9,35.5c-0.9,1-2,2-3.1,2.8l0,0c-0.1,0-0.3-0.1-0.5-0.2c-0.5-0.1-1.1-0.3-1.9-0.4
			c-0.4-0.1-0.8-0.1-1.3-0.2c-0.2,0-0.5,0-0.7,0c-0.3,0-0.5,0-0.8,0c-0.3,0-0.5,0-0.8,0c-0.3,0-0.5,0-0.8,0c-0.1,0-0.3,0-0.4,0h-0.3
			c-0.3,0-0.5,0-0.8,0.1c-1,0.1-2,0.3-3,0.5c-1,0.2-1.8,0.4-2.6,0.5c-0.4,0.1-0.8,0.1-1,0.2s-0.6,0.1-0.8,0.1c-0.2,0-0.4,0-0.5,0
			c-0.1,0-0.2,0-0.2,0s0.1,0,0.2,0c0.1,0,0.3,0,0.5,0c0.3,0,0.5,0,0.8,0c0.3,0,0.7,0,1-0.1c0.8-0.1,1.7-0.2,2.6-0.3
			c1-0.1,2-0.3,3-0.3c0.3,0,0.5,0,0.8,0h0.4c0.1,0,0.3,0,0.4,0c0.3,0,0.5,0,0.8,0c0.3,0,0.5,0,0.7,0c0.3,0,0.5,0,0.7,0.1
			s0.5,0,0.7,0.1c0.4,0.1,0.8,0.2,1.2,0.3c0.6,0.1,1.1,0.3,1.5,0.4c-3.3,2.1-7.2,3.3-11.4,3.3c-5.6,0-10.8-2.3-14.5-5.9
			c0.3-0.1,0.5-0.2,0.9-0.3c0.5-0.1,1-0.3,1.7-0.4c0.6-0.1,1.3-0.3,2-0.4c0.4,0,0.8-0.1,1.1-0.2c0.2,0,0.4,0,0.6-0.1
			c0.2,0,0.4,0,0.6,0c0.4,0,0.8,0,1.2-0.1s0.8,0,1.3,0c0.2,0,0.4,0,0.6,0c0.2,0,0.4,0,0.7,0c0.4,0,0.8,0,1.3,0
			c0.9,0,1.7,0.1,2.6,0.3c0.8,0.1,1.7,0.2,2.5,0.3c0.8,0.1,1.6,0.2,2.3,0.3c0.8,0.1,1.5,0.2,2.1,0.3c0.3,0,0.6,0.1,0.9,0.1
			c0.3,0,0.6,0,0.8,0.1c0.5,0,1,0,1.4,0s0.7,0,0.9,0c0.2,0,0.3,0,0.3,0s-0.1,0-0.3,0c-0.2,0-0.5,0-0.9,0c-0.4,0-0.8-0.1-1.4-0.1
			c-0.3,0-0.5-0.1-0.8-0.1c-0.3,0-0.6-0.1-0.9-0.2c-0.6-0.1-1.3-0.3-2.1-0.4c-0.8-0.2-1.5-0.3-2.3-0.5s-1.6-0.3-2.5-0.5
			c-0.8-0.2-1.7-0.3-2.6-0.4c-0.4,0-0.9-0.1-1.3-0.2c-0.2,0-0.4,0-0.6,0c-0.3,0-0.5,0-0.7,0c-0.4,0-0.9,0-1.3,0c-0.4,0-0.8,0-1.3,0
			c-0.2,0-0.4,0-0.6,0s-0.4,0-0.6,0c-0.4,0-0.8,0-1.2,0.1c-0.8,0.1-1.5,0.2-2.1,0.3c-0.7,0.1-1.3,0.3-1.8,0.3
			c-0.5,0.1-1,0.3-1.4,0.4c-0.1,0-0.3,0.1-0.4,0.1c-1.1-1.3-2-2.6-2.8-4.1c1-0.2,2.3-0.4,4-0.4c7.5,0,18.5,2.7,23.8,4l0.2,0
			c2.1,0.5,4.1,0.8,5.8,0.8C36.7,35.5,36.8,35.5,36.9,35.5z"/>
		
			<linearGradient id="SVGID_2_" gradientUnits="userSpaceOnUse" x1="0.4406" y1="630.4389" x2="41.8552" y2="630.4389" gradientTransform="matrix(1 0 0 1 0 -615.3747)">
			<stop  offset="0" style="stop-color:#FEA12A"/>
			<stop  offset="1" style="stop-color:#FECD2A"/>
		</linearGradient>
		<path class="st2" d="M41.8,26.1c-0.3,1.2-0.7,2.4-1.1,3.5c-2.4,0-5.8-1-9.6-2.1c0,0-0.1,0-0.1,0l8.3-0.3l-12.4-0.8
			c-0.9-0.3-1.8-0.5-2.7-0.7l0,0c-3.9-6.6-5.6-22.4-5.6-22.4c-6.3,7.5-6.6,19.1-6.6,21c-0.3,0-0.5,0-0.7,0c0-13.3,6.2-20.6,6.6-21
			c-7,6.8-7.9,19.5-8.1,21.1c-4.1,0.5-6.8,1.7-8.5,2.9c-0.5-1.9-0.9-3.9-0.9-6c0-1.1,0.1-2.2,0.3-3.3l6-0.2l-5.8-0.4
			C1.2,15.2,2.1,13,3.2,11l8.9-0.3l-8.3-0.6C7.4,4.3,14,0.5,21.4,0.5c4.3,0,8.3,1.3,11.6,3.5c-1.8,0.5-1.7,2.6-1.5,3.6
			c-0.8-1.1-2.7-3-5.9-2.8c-5.4,0.4-4.4,6.7-4.4,6.7s0.4-0.8,1.2-1.8c-0.1-0.4-0.3-1.3-0.1-2.3c0,0,0.1,1.5,0.3,2.1
			c0.3-0.3,0.6-0.7,1-1c-0.1-0.5-0.3-1.6,0-2.5c0,0-0.1,1.4,0.2,2.3c0.7-0.5,1.5-1,2.5-1.3c2.7-0.7,4.3,0.3,4.9,0.8
			c-1-0.3-2.6-0.5-4,0.6c-2.7,2.1-1.4,6.5-1.4,6.5s0.3-1.5,1.2-3.2c-0.2-0.3-0.5-0.8-0.7-1.5c0,0,0.3,0.8,0.8,1.3
			c0.2-0.3,0.4-0.6,0.7-1c-0.2-0.3-0.6-0.8-0.8-1.3c0,0,0.6,0.7,1,1.1c0.3-0.3,0.5-0.5,0.8-0.8c0.5-0.4,1-0.7,1.5-0.8
			c-0.3,0.3-0.5,0.7-0.7,1.4c-0.8,3.5,1.9,6.6,1.9,6.6s-0.2-1.7-0.3-3.6C30.7,13,30,12.5,29.6,12c0,0,0.9,0.6,1.5,1
			c0-1.6,0.2-3.2,0.7-4.2c0.2,0.3,0.6,0.7,1,1.3c0,0-0.1,0.1-0.1,0.1c0.5,0.7,1.2,1.7,1.3,1.8l0,0c-0.1,0.1-0.1,0.1-0.1,0.1
			c0.6,1,1.2,2.1,1.3,2.3l0,0C35,14.5,35,14.5,35,14.5c0.3,0.4,1,2.1,1.1,2.3l0,0c-0.1,0-0.2,0.1-0.2,0.1c0.3,0.6,0.8,2.3,0.9,2.5
			c0,0,0,0,0,0c-0.1,0-0.2,0-0.2,0c0.2,0.5,0.6,2.4,0.7,2.7c0,0,0,0,0,0l-0.1,0c0.1,0.5,0.4,2.5,0.5,2.9v0l-8,0.5L41.8,26.1z"/>
		
			<linearGradient id="SVGID_3_" gradientUnits="userSpaceOnUse" x1="32.0476" y1="630.418" x2="42.3339" y2="630.418" gradientTransform="matrix(1 0 0 1 0 -615.3747)">
			<stop  offset="0" style="stop-color:#FEA12A"/>
			<stop  offset="1" style="stop-color:#FECD2A"/>
		</linearGradient>
		<path class="st3" d="M42.3,21.5c0,1.2-0.1,2.3-0.3,3.4L39.9,25c0,0,0-0.1,0-0.2c0-0.8-0.3-2.9-0.3-2.9l-0.2,0
			c0-0.5-0.5-2.9-0.5-2.9c0,0-0.1,0-0.2,0c-0.2-0.8-0.8-2.7-0.8-2.7c0,0-0.1,0-0.2,0c-0.3-1-1.1-2.6-1.1-2.6c0,0-0.1,0-0.2,0l0,0
			c-0.2-0.4-0.5-1-0.9-1.5c-0.3-0.5-0.6-0.9-0.6-0.9c0,0-0.1,0-0.1,0c-0.1-0.2-0.5-0.7-0.8-1.1c-0.3-0.4-0.6-0.8-0.6-0.8
			c0,0-0.1,0-0.1,0.1c-0.4-0.4-0.9-0.8-1.4-1.2c1-0.5,2,0.1,2.8,1c0.1-0.3,0.2-0.7,0.2-1c0,0,0,0.5-0.1,1.1c0.2,0.3,0.4,0.6,0.6,0.9
			c0,0,0.2-1.1,0.2-1.5c0,0,0.1,0.8,0,1.8c0.2,0.3,0.3,0.5,0.4,0.8c0,0,0.2-1,0.2-1.5c0,0,0.1,0.8,0,1.7c0.4,0.8,0.6,1.5,0.6,1.5
			s0.3-4.2-1.5-5.8c-1.9-1.8-3.1,0.1-3.3,0.4c0.2-0.8,0.5-1.3,0.9-1.5c0.3-0.2,0.6-0.3,0.9-0.4c-0.2-0.3-0.5-0.6-0.8-0.8
			c0.1,0.1,0.7,0.4,1,0.8c1-0.1,1.8,0.5,2.3,0.9l0,0l0,0c0,0,0,0,0.1,0.1c0,0,0,0,0,0c0,0,0,0,0,0.1l0,0l0,0l0,0
			C40.1,10.8,42.3,15.9,42.3,21.5z"/>
		
			<linearGradient id="SVGID_4_" gradientUnits="userSpaceOnUse" x1="-0.5152" y1="645.2961" x2="43.3279" y2="645.2961" gradientTransform="matrix(1 0 0 1 0 -615.3747)">
			<stop  offset="0" style="stop-color:#21409A"/>
			<stop  offset="1" style="stop-color:#1C75BC"/>
		</linearGradient>
		<path class="st4" d="M-0.2,31c0,0,2.1-5.6,13.9-5.4s24.2,6.8,29.4,5.1c0,0-0.7,5.6-11.9,2.9C23.6,31.7,4.5,27-0.2,31z"/>
		<path class="st0" d="M22.9,3.3c0,0-0.1-0.3-0.5-0.4C21.9,2.7,21,2.2,20.9,2c-0.1-0.2-0.4-0.4-0.4-0.5c0-0.1-0.1,0.2,0.1,0.4
			c0.2,0.2,0.4,0.5,0.5,0.6c0.1,0.2,0.4,0.7,1,0.8c0.5,0.1,0.8,0.2,0.8,0.3c0,0.1-0.1,0.2-0.2,0.2s-0.4-0.1-0.5,0
			c0,0.1,0.3,0.6,0.6,0.7c0.4,0,0.8-0.1,0.8-0.2c0,0-0.3-0.1-0.3-0.2C23.3,4,23.5,4,23.6,4c0.1-0.1,0.3-0.1,0.4-0.1c0.1,0,0,0,0,0
			s0.5,0,0.8,0c0.2,0,0.8-0.2,0.9-0.2c0.2,0,1.5-0.3,1.5-0.4c0-0.1-0.2,0-0.4,0c-0.2,0-0.9,0.1-1.2,0c-0.3-0.1-0.7-0.1-0.8-0.1
			c-0.2,0-0.6,0.2-0.8,0.2c-0.2,0-0.3,0-0.3,0s-0.1-0.1-0.3-0.2C23.2,3.2,22.9,3.3,22.9,3.3z"/>
		<path class="st0" d="M30.5,19.2c0,0-0.1-0.1-0.1-0.1c-0.1,0-0.1,0-0.2,0s-0.3,0-0.3-0.3c-0.1-0.2,0-0.5-0.1-0.6
			c-0.2-0.1-0.6-0.2-1.2-0.1c-0.5,0-0.6,0-0.4,0.2c0.2,0.1,0.4,0.2,0.5,0.2s0.3,0,0.4,0.1c0.1,0.1,0.1,0.2,0.3,0.4
			c0.1,0.2,0.3,0.5,0.3,0.5s-0.1,0.2-0.2,0.2c-0.1,0-0.2,0-0.2,0.1c0,0,0.1,0.1,0.2,0.1s0.1,0.1,0.1,0c0,0,0.1-0.2,0.2-0.2
			c0.1,0,0.2,0,0.4-0.1c0.2-0.1,0.3-0.3,0.3-0.3c0,0,0.1,0,0.1,0.1c0,0,0.1,0.2,0.2,0.3c0.1,0.1,0.2,0.3,0.3,0.3c0.1,0,0-0.3,0-0.5
			c0-0.2,0-0.3-0.1-0.4c0-0.1-0.1-0.1-0.2-0.1C30.7,19.2,30.5,19.2,30.5,19.2z"/>
	</g>
	<g>
		<g>
			<g class="st5">
				<path class="st6" d="M52.3,37.7H50l-0.5,1.1H49l1.9-4.1h0.4l1.9,4.1h-0.5L52.3,37.7z M52.1,37.3l-1-2.2l-1,2.2H52.1z"/>
				<path class="st6" d="M57.8,36.7h0.4v1.5c-0.2,0.2-0.4,0.3-0.7,0.4c-0.3,0.1-0.5,0.1-0.8,0.1c-0.4,0-0.8-0.1-1.1-0.3
					c-0.3-0.2-0.6-0.4-0.8-0.8c-0.2-0.3-0.3-0.7-0.3-1.1c0-0.4,0.1-0.8,0.3-1.1c0.2-0.3,0.5-0.6,0.8-0.8c0.3-0.2,0.7-0.3,1.1-0.3
					c0.3,0,0.6,0,0.9,0.2c0.3,0.1,0.5,0.3,0.7,0.5l-0.3,0.3c-0.3-0.3-0.8-0.5-1.3-0.5c-0.3,0-0.6,0.1-0.9,0.2
					c-0.3,0.1-0.5,0.3-0.6,0.6c-0.2,0.3-0.2,0.5-0.2,0.9s0.1,0.6,0.2,0.9c0.2,0.3,0.4,0.5,0.6,0.6c0.3,0.2,0.5,0.2,0.9,0.2
					c0.4,0,0.8-0.1,1.1-0.3L57.8,36.7L57.8,36.7z"/>
				<path class="st6" d="M63.5,38.4v0.4h-2.9v-4.1h2.8V35h-2.4v1.5h2.1v0.4h-2.1v1.5H63.5z M62.6,34.3L62,33.8l-0.6,0.5h-0.4
					l0.8-0.7h0.4l0.8,0.7H62.6z"/>
				<path class="st6" d="M69.1,34.6v4.1h-0.4l-2.6-3.3v3.3h-0.4v-4.1H66l2.6,3.3v-3.3H69.1z"/>
				<path class="st6" d="M72.2,38.5c-0.3-0.2-0.6-0.4-0.8-0.8c-0.2-0.3-0.3-0.7-0.3-1.1c0-0.4,0.1-0.8,0.3-1.1
					c0.2-0.3,0.5-0.6,0.8-0.8c0.3-0.2,0.7-0.3,1.1-0.3c0.3,0,0.6,0,0.8,0.2c0.3,0.1,0.5,0.3,0.7,0.5l-0.3,0.3
					c-0.3-0.3-0.7-0.5-1.2-0.5c-0.3,0-0.6,0.1-0.9,0.2c-0.3,0.2-0.5,0.3-0.6,0.6c-0.2,0.3-0.2,0.5-0.2,0.9s0.1,0.6,0.2,0.9
					c0.2,0.3,0.4,0.5,0.6,0.6c0.3,0.2,0.5,0.2,0.9,0.2c0.5,0,0.9-0.2,1.2-0.5l0.3,0.3c-0.2,0.2-0.4,0.3-0.7,0.5
					c-0.3,0.1-0.5,0.2-0.8,0.2C72.9,38.8,72.5,38.7,72.2,38.5z"/>
				<path class="st6" d="M76.8,34.6h0.4v4.1h-0.4V34.6z"/>
				<path class="st6" d="M82.3,37.7H80l-0.5,1.1H79l1.9-4.1h0.4l1.9,4.1h-0.5L82.3,37.7z M82.1,37.3l-1-2.2l-1,2.2H82.1z"/>
				<path class="st6" d="M87.7,34.6h1.7c0.4,0,0.8,0.1,1.1,0.3c0.3,0.2,0.6,0.4,0.8,0.7c0.2,0.3,0.3,0.7,0.3,1c0,0.4-0.1,0.8-0.3,1
					c-0.2,0.3-0.5,0.5-0.8,0.7c-0.3,0.2-0.7,0.3-1.1,0.3h-1.7V34.6z M89.3,38.4c0.4,0,0.7-0.1,1-0.2c0.3-0.1,0.5-0.3,0.6-0.6
					c0.2-0.3,0.2-0.5,0.2-0.9c0-0.3-0.1-0.6-0.2-0.9c-0.2-0.3-0.4-0.5-0.6-0.6c-0.3-0.1-0.6-0.2-1-0.2h-1.2v3.3H89.3z"/>
				<path class="st6" d="M96.5,38.4v0.4h-2.9v-4.1h2.8V35h-2.4v1.5h2.1v0.4h-2.1v1.5H96.5z"/>
				<path class="st6" d="M104.7,34.6l-1.8,4.1h-0.4l-1.8-4.1h0.5l1.6,3.5l1.6-3.5H104.7z"/>
				<path class="st6" d="M106.4,34.6h0.4v4.1h-0.4V34.6z"/>
				<path class="st6" d="M111.9,37.7h-2.3l-0.5,1.1h-0.5l1.9-4.1h0.4l1.9,4.1h-0.5L111.9,37.7z M111.7,37.3l-1-2.2l-1,2.2H111.7z"/>
				<path class="st6" d="M117.5,36.7h0.4v1.5c-0.2,0.2-0.4,0.3-0.7,0.4c-0.3,0.1-0.5,0.1-0.8,0.1c-0.4,0-0.8-0.1-1.1-0.3
					c-0.3-0.2-0.6-0.4-0.8-0.8c-0.2-0.3-0.3-0.7-0.3-1.1c0-0.4,0.1-0.8,0.3-1.1c0.2-0.3,0.5-0.6,0.8-0.8c0.3-0.2,0.7-0.3,1.1-0.3
					c0.3,0,0.6,0,0.9,0.2c0.3,0.1,0.5,0.3,0.7,0.5l-0.3,0.3c-0.3-0.3-0.8-0.5-1.3-0.5c-0.3,0-0.6,0.1-0.9,0.2
					c-0.3,0.1-0.5,0.3-0.6,0.6c-0.2,0.3-0.2,0.5-0.2,0.9s0.1,0.6,0.2,0.9c0.2,0.3,0.4,0.5,0.6,0.6c0.3,0.2,0.5,0.2,0.9,0.2
					c0.4,0,0.8-0.1,1.1-0.3L117.5,36.7L117.5,36.7z"/>
				<path class="st6" d="M123.1,38.4v0.4h-2.9v-4.1h2.8V35h-2.4v1.5h2.1v0.4h-2.1v1.5H123.1z"/>
				<path class="st6" d="M128.6,34.6v4.1h-0.3l-2.6-3.3v3.3h-0.4v-4.1h0.4l2.6,3.3v-3.3H128.6z"/>
				<path class="st6" d="M131.4,38.6c-0.3-0.1-0.5-0.2-0.6-0.4l0.2-0.3c0.2,0.2,0.3,0.3,0.6,0.4c0.3,0.1,0.5,0.1,0.8,0.1
					c0.4,0,0.6-0.1,0.8-0.2c0.2-0.1,0.3-0.3,0.3-0.5c0-0.2,0-0.3-0.2-0.4c-0.1-0.1-0.2-0.2-0.4-0.2c-0.1,0-0.3-0.1-0.6-0.2
					c-0.3-0.1-0.5-0.2-0.8-0.2c-0.2-0.1-0.3-0.2-0.5-0.3c-0.1-0.2-0.2-0.3-0.2-0.6c0-0.2,0-0.4,0.2-0.6c0.1-0.2,0.3-0.3,0.5-0.4
					c0.2-0.1,0.5-0.2,0.8-0.2c0.3,0,0.5,0,0.7,0.1c0.2,0.1,0.4,0.2,0.6,0.3l-0.2,0.3c-0.2-0.1-0.3-0.2-0.5-0.3
					c-0.2,0-0.4-0.1-0.6-0.1c-0.4,0-0.6,0.1-0.8,0.2c-0.2,0.1-0.3,0.3-0.3,0.5c0,0.2,0,0.3,0.2,0.4c0.1,0.1,0.2,0.2,0.4,0.2
					s0.3,0.1,0.6,0.2c0.3,0.1,0.5,0.2,0.7,0.2c0.2,0.1,0.3,0.2,0.5,0.3c0.1,0.1,0.2,0.3,0.2,0.6c0,0.2,0,0.4-0.2,0.6
					c-0.1,0.2-0.3,0.3-0.5,0.4c-0.3,0.1-0.5,0.2-0.8,0.2C131.9,38.8,131.6,38.7,131.4,38.6z"/>
			</g>
		</g>
		<g>
			<g class="st5">
				<path class="st7" d="M68.4,17.9c0,1.6-0.3,3.1-0.8,4.5c-0.5,1.3-1.3,2.5-2.3,3.5c-1,1-2.2,1.8-3.5,2.3c-1.4,0.5-2.9,0.8-4.6,0.8
					h-8.5V6.8H57c1.7,0,3.2,0.3,4.6,0.8c1.4,0.5,2.6,1.3,3.5,2.3c1,1,1.8,2.1,2.3,3.5C68.1,14.8,68.4,16.2,68.4,17.9z M63.7,17.9
					c0-1.2-0.2-2.2-0.5-3.1c-0.3-0.9-0.8-1.7-1.3-2.3c-0.6-0.6-1.3-1.1-2.1-1.5c-0.8-0.3-1.8-0.5-2.8-0.5h-3.9v14.9H57
					c1,0,2-0.2,2.8-0.5s1.5-0.8,2.1-1.5c0.6-0.6,1-1.4,1.3-2.3C63.5,20.1,63.7,19,63.7,17.9z"/>
				<path class="st7" d="M74.3,21.7c0.1,1.5,0.5,2.5,1.3,3.2s1.6,1,2.8,1c0.6,0,1.1-0.1,1.5-0.2c0.4-0.1,0.8-0.3,1.1-0.5
					c0.3-0.2,0.6-0.3,0.9-0.5c0.3-0.1,0.5-0.2,0.8-0.2c0.3,0,0.6,0.1,0.8,0.4l1.2,1.5c-0.5,0.5-0.9,1-1.5,1.3
					c-0.5,0.3-1.1,0.6-1.7,0.8c-0.6,0.2-1.2,0.3-1.8,0.4c-0.6,0.1-1.2,0.1-1.7,0.1c-1.1,0-2.1-0.2-3-0.5c-1-0.4-1.8-0.9-2.5-1.6
					c-0.7-0.7-1.3-1.6-1.7-2.6c-0.4-1-0.6-2.3-0.6-3.6c0-1.1,0.2-2.1,0.5-3c0.3-1,0.8-1.8,1.5-2.5c0.7-0.7,1.5-1.3,2.4-1.7
					s2-0.6,3.2-0.6c1,0,1.9,0.2,2.8,0.5c0.8,0.3,1.6,0.8,2.2,1.4c0.6,0.6,1.1,1.3,1.4,2.3c0.3,0.9,0.5,1.9,0.5,3c0,0.3,0,0.6,0,0.8
					c0,0.2-0.1,0.4-0.2,0.5c-0.1,0.1-0.2,0.2-0.3,0.3s-0.3,0.1-0.5,0.1C83.8,21.7,74.3,21.7,74.3,21.7z M80.9,19.2
					c0-0.4,0-0.8-0.2-1.3c-0.1-0.4-0.3-0.8-0.5-1c-0.3-0.3-0.6-0.5-1-0.7c-0.4-0.2-0.8-0.3-1.4-0.3c-1,0-1.8,0.3-2.3,0.8
					c-0.6,0.6-0.9,1.4-1.1,2.4H80.9z"/>
				<path class="st7" d="M91.2,15c0.3-0.3,0.6-0.6,1-0.8c0.3-0.3,0.7-0.5,1.1-0.7c0.4-0.2,0.8-0.3,1.3-0.4c0.5-0.1,0.9-0.2,1.4-0.2
					c0.8,0,1.6,0.2,2.3,0.5c0.7,0.3,1.2,0.7,1.7,1.3c0.5,0.5,0.8,1.2,1,1.9c0.3,0.7,0.3,1.5,0.3,2.4v10H97v-10c0-0.9-0.2-1.5-0.6-2
					s-1-0.7-1.8-0.7c-0.6,0-1.1,0.1-1.7,0.4c-0.5,0.3-1,0.6-1.5,1.1v11.3h-4.2V13.2h2.6c0.5,0,0.9,0.3,1,0.7L91.2,15z"/>
				<path class="st7" d="M118.4,6.2v22.7h-2.6c-0.5,0-0.9-0.3-1-0.7l-0.3-1.4c-0.3,0.3-0.6,0.7-1,1c-0.3,0.3-0.7,0.5-1.1,0.8
					c-0.4,0.2-0.8,0.4-1.3,0.5c-0.5,0.1-1,0.2-1.5,0.2c-0.8,0-1.6-0.2-2.3-0.5c-0.7-0.4-1.3-0.9-1.8-1.5c-0.5-0.7-0.9-1.5-1.2-2.5
					c-0.3-1-0.4-2.1-0.4-3.4c0-1.2,0.2-2.3,0.5-3.3c0.3-1,0.8-1.9,1.4-2.6c0.6-0.7,1.3-1.3,2.1-1.7c0.8-0.4,1.8-0.6,2.8-0.6
					c0.8,0,1.6,0.1,2.2,0.4c0.6,0.3,1.1,0.6,1.6,1V6.2H118.4z M114.2,17.3c-0.4-0.5-0.8-0.8-1.3-1c-0.5-0.2-1-0.3-1.5-0.3
					c-0.5,0-1,0.1-1.4,0.3c-0.4,0.2-0.8,0.5-1.1,0.9s-0.5,0.9-0.7,1.6c-0.2,0.6-0.3,1.4-0.3,2.3s0.1,1.6,0.2,2.2
					c0.1,0.6,0.3,1.1,0.6,1.5c0.3,0.4,0.5,0.6,0.9,0.8c0.4,0.2,0.8,0.3,1.2,0.3c0.8,0,1.4-0.2,1.9-0.5c0.5-0.3,1-0.7,1.4-1.3
					L114.2,17.3L114.2,17.3z"/>
				<path class="st7" d="M125.3,21.7c0.1,1.5,0.5,2.5,1.3,3.2s1.6,1,2.8,1c0.6,0,1.1-0.1,1.5-0.2c0.4-0.1,0.8-0.3,1.1-0.5
					c0.3-0.2,0.6-0.3,0.9-0.5c0.3-0.1,0.5-0.2,0.8-0.2c0.3,0,0.6,0.1,0.8,0.4l1.2,1.5c-0.5,0.5-0.9,1-1.5,1.3
					c-0.5,0.3-1.1,0.6-1.7,0.8c-0.6,0.2-1.2,0.3-1.8,0.4s-1.2,0.1-1.7,0.1c-1.1,0-2.1-0.2-3-0.5c-1-0.4-1.8-0.9-2.5-1.6
					c-0.7-0.7-1.3-1.6-1.7-2.6c-0.4-1-0.6-2.3-0.6-3.6c0-1.1,0.2-2.1,0.5-3c0.3-1,0.8-1.8,1.5-2.5c0.7-0.7,1.5-1.3,2.4-1.7
					s2-0.6,3.2-0.6c1,0,1.9,0.2,2.8,0.5c0.8,0.3,1.6,0.8,2.2,1.4c0.6,0.6,1.1,1.3,1.4,2.3c0.3,0.9,0.5,1.9,0.5,3c0,0.3,0,0.6,0,0.8
					c0,0.2-0.1,0.4-0.2,0.5c-0.1,0.1-0.2,0.2-0.3,0.3c-0.1,0-0.3,0.1-0.5,0.1C134.7,21.7,125.3,21.7,125.3,21.7z M134.3,11.1h-2.8
					c-0.2,0-0.3,0-0.5-0.1c-0.2,0-0.3-0.2-0.5-0.3l-1.3-1.5c0,0-0.1-0.1-0.2-0.2c0-0.1-0.1-0.1-0.2-0.2c-0.1,0.2-0.3,0.3-0.3,0.4
					l-1.4,1.5c-0.3,0.3-0.6,0.4-1,0.4h-2.9l3.5-4.3h3.9L134.3,11.1z M131.9,19.2c0-0.4,0-0.8-0.2-1.3c-0.1-0.4-0.3-0.8-0.5-1
					c-0.3-0.3-0.6-0.5-1-0.7c-0.4-0.2-0.8-0.3-1.4-0.3c-1,0-1.8,0.3-2.3,0.8c-0.6,0.6-0.9,1.4-1.1,2.4H131.9z"/>
			</g>
		</g>
	</g>
</g>
</svg>
